<?xml version="1.0" standalone="no"?>
<!DOCTYPE svg PUBLIC "-//W3C//DTD SVG 20010904//EN"
 "http://www.w3.org/TR/2001/REC-SVG-20010904/DTD/svg10.dtd">
<svg version="1.0" xmlns="http://www.w3.org/2000/svg"
 width="128.000000pt" height="128.000000pt" viewBox="0 0 128.000000 128.000000"
 preserveAspectRatio="xMidYMid meet">

<g transform="translate(0.000000,128.000000) scale(0.100000,-0.100000)"
fill="#000000" stroke="none">
<path d="M184 1181 c-17 -11 -36 -34 -43 -52 -7 -22 -11 -157 -11 -421 0 -437
1 -447 64 -473 29 -12 99 -15 372 -15 l336 0 -7 42 -8 43 67 -58 c36 -31 95
-82 131 -113 l65 -56 0 511 c0 561 0 565 -59 595 -26 14 -89 16 -453 16 -398
0 -425 -1 -454 -19z m356 -258 c-48 -17 -102 -44 -98 -48 3 -3 25 2 49 11 61
24 237 24 298 0 24 -9 46 -14 49 -11 4 4 -50 31 -98 48 -10 4 -9 6 6 6 11 1
47 -8 81 -20 58 -19 62 -22 86 -77 28 -63 52 -150 62 -228 6 -49 5 -52 -27
-79 -67 -57 -136 -70 -163 -32 -15 21 -14 23 25 41 62 31 47 36 -25 10 -91
-33 -199 -33 -290 0 -72 26 -87 21 -25 -10 39 -18 40 -20 25 -41 -27 -39 -96
-25 -163 32 -33 28 -34 30 -27 83 10 77 32 157 62 224 24 54 28 58 82 77 31
11 67 19 81 19 14 0 19 -2 10 -5z"/>
<path d="M495 700 c-23 -25 -13 -67 20 -82 52 -23 100 46 59 86 -21 22 -57 20
-79 -4z"/>
<path d="M706 704 c-41 -40 7 -109 59 -86 14 6 27 23 31 37 13 50 -53 86 -90
49z"/>
</g>
</svg>
